<?xml version="1.0" encoding="utf-8" ?>
<!DOCTYPE svg PUBLIC "-//W3C//DTD SVG 1.1//EN" "http://www.w3.org/Graphics/SVG/1.1/DTD/svg11.dtd">
<svg height="404" version="1.1" width="620" xmlns="http://www.w3.org/2000/svg">
<polygon fill="#ffffff" points="14,14 556,14 556,38 605,38 605,389 14,389 14,14" stroke="#ffffff" stroke-width="1"/>
<rect fill="none" height="24" stroke="#000000" stroke-width="1" width="542" x="14" y="14"/>
<text font-family="Dialog" font-size="12" x="19" y="28">
Roadrunner</text>
<rect fill="none" height="351" stroke="#000000" stroke-width="1" width="591" x="14" y="38"/>
<rect fill="#ffffff" height="88" stroke="#ffffff" stroke-width="1" width="184" x="70" y="230"/>
<rect fill="none" height="88" stroke="#000000" stroke-width="1" width="184" x="70" y="230"/>
<text font-family="Dialog" font-size="12" x="135" y="244">
Container</text>
<rect fill="#000000" height="1" stroke="#000000" stroke-width="1" width="184" x="70" y="254"/>
<rect fill="#000000" height="1" stroke="#000000" stroke-width="1" width="184" x="70" y="275"/>
<text font-family="Dialog" font-size="12" x="74" y="290">
load(i : Item) : void</text>
<text font-family="Dialog" font-size="12" x="74" y="307">
unload(i : Item) : void</text>
<rect fill="#ffffff" height="72" stroke="#ffffff" stroke-width="1" width="104" x="254" y="78"/>
<rect fill="none" height="72" stroke="#000000" stroke-width="1" width="104" x="254" y="78"/>
<text font-family="Dialog" font-size="12" x="276" y="92">
Application</text>
<rect fill="#000000" height="1" stroke="#000000" stroke-width="1" width="104" x="254" y="102"/>
<rect fill="#000000" height="1" stroke="#000000" stroke-width="1" width="104" x="254" y="123"/>
<text font-family="Dialog" font-size="12" x="258" y="138">
getNextId() : int</text>
<rect fill="#ffffff" height="80" stroke="#ffffff" stroke-width="1" width="130" x="406" y="238"/>
<rect fill="none" height="80" stroke="#000000" stroke-width="1" width="130" x="406" y="238"/>
<text font-family="Dialog" font-size="12" x="459" y="252">
Item</text>
<rect fill="#000000" height="1" stroke="#000000" stroke-width="1" width="130" x="406" y="262"/>
<text font-family="Dialog" font-size="12" x="410" y="277">
_id : int</text>
<rect fill="#000000" height="1" stroke="#000000" stroke-width="1" width="130" x="406" y="289"/>
<text font-family="Dialog" font-size="12" x="410" y="304">
&lt;&lt;create&gt;&gt; Item(i : int)</text>
<polyline fill="none" points="254,270 406,270" stroke="#000000" stroke-width="1"/>
<text font-family="Dialog" font-size="12" x="305" y="250">
loaded</text>
<text font-family="Dialog" font-size="12" x="259" y="265">
0..1</text>
<text font-family="Dialog" font-size="12" x="383" y="265">
0..*</text>
</svg>
