<?xml version="1.0" encoding="utf-8" ?>
<!DOCTYPE svg PUBLIC "-//W3C//DTD SVG 1.1//EN" "http://www.w3.org/Graphics/SVG/1.1/DTD/svg11.dtd">
<svg height="436" version="1.1" width="1044" xmlns="http://www.w3.org/2000/svg">
<line fill="#000000" stroke="#000000" stroke-width="1" x1="377" x2="377" y1="63" y2="68"/>
<line fill="#000000" stroke="#000000" stroke-width="1" x1="377" x2="377" y1="73" y2="78"/>
<line fill="#000000" stroke="#000000" stroke-width="1" x1="377" x2="377" y1="83" y2="88"/>
<line fill="#000000" stroke="#000000" stroke-width="1" x1="377" x2="377" y1="93" y2="98"/>
<line fill="#000000" stroke="#000000" stroke-width="1" x1="377" x2="377" y1="103" y2="108"/>
<line fill="#000000" stroke="#000000" stroke-width="1" x1="377" x2="377" y1="113" y2="118"/>
<line fill="#000000" stroke="#000000" stroke-width="1" x1="377" x2="377" y1="123" y2="128"/>
<line fill="#000000" stroke="#000000" stroke-width="1" x1="377" x2="377" y1="133" y2="138"/>
<line fill="#000000" stroke="#000000" stroke-width="1" x1="377" x2="377" y1="143" y2="148"/>
<line fill="#000000" stroke="#000000" stroke-width="1" x1="377" x2="377" y1="153" y2="158"/>
<line fill="#000000" stroke="#000000" stroke-width="1" x1="377" x2="377" y1="163" y2="168"/>
<line fill="#000000" stroke="#000000" stroke-width="1" x1="377" x2="377" y1="173" y2="178"/>
<line fill="#000000" stroke="#000000" stroke-width="1" x1="377" x2="377" y1="183" y2="188"/>
<line fill="#000000" stroke="#000000" stroke-width="1" x1="377" x2="377" y1="193" y2="198"/>
<line fill="#000000" stroke="#000000" stroke-width="1" x1="377" x2="377" y1="203" y2="208"/>
<line fill="#000000" stroke="#000000" stroke-width="1" x1="377" x2="377" y1="213" y2="218"/>
<line fill="#000000" stroke="#000000" stroke-width="1" x1="377" x2="377" y1="223" y2="228"/>
<line fill="#000000" stroke="#000000" stroke-width="1" x1="377" x2="377" y1="233" y2="238"/>
<line fill="#000000" stroke="#000000" stroke-width="1" x1="377" x2="377" y1="243" y2="248"/>
<line fill="#000000" stroke="#000000" stroke-width="1" x1="377" x2="377" y1="253" y2="258"/>
<line fill="#000000" stroke="#000000" stroke-width="1" x1="377" x2="377" y1="263" y2="268"/>
<line fill="#000000" stroke="#000000" stroke-width="1" x1="377" x2="377" y1="273" y2="278"/>
<line fill="#000000" stroke="#000000" stroke-width="1" x1="377" x2="377" y1="283" y2="288"/>
<line fill="#000000" stroke="#000000" stroke-width="1" x1="377" x2="377" y1="293" y2="298"/>
<line fill="#000000" stroke="#000000" stroke-width="1" x1="377" x2="377" y1="303" y2="308"/>
<line fill="#000000" stroke="#000000" stroke-width="1" x1="377" x2="377" y1="313" y2="318"/>
<line fill="#000000" stroke="#000000" stroke-width="1" x1="377" x2="377" y1="323" y2="328"/>
<line fill="#000000" stroke="#000000" stroke-width="1" x1="377" x2="377" y1="333" y2="338"/>
<line fill="#000000" stroke="#000000" stroke-width="1" x1="377" x2="377" y1="343" y2="348"/>
<line fill="#000000" stroke="#000000" stroke-width="1" x1="377" x2="377" y1="353" y2="358"/>
<line fill="#000000" stroke="#000000" stroke-width="1" x1="377" x2="377" y1="363" y2="368"/>
<line fill="#000000" stroke="#000000" stroke-width="1" x1="377" x2="377" y1="373" y2="378"/>
<line fill="#000000" stroke="#000000" stroke-width="1" x1="377" x2="377" y1="383" y2="388"/>
<line fill="#000000" stroke="#000000" stroke-width="1" x1="377" x2="377" y1="393" y2="398"/>
<line fill="#000000" stroke="#000000" stroke-width="1" x1="377" x2="377" y1="403" y2="408"/>
<line fill="#000000" stroke="#000000" stroke-width="1" x1="377" x2="377" y1="413" y2="418"/>
<rect fill="#ffffff" height="358" stroke="#ffffff" stroke-width="1" width="20" x="367" y="63"/>
<rect fill="none" height="358" stroke="#000000" stroke-width="1" width="20" x="367" y="63"/>
<rect fill="#ffffff" height="50" stroke="#ffffff" stroke-width="1" width="150" x="302" y="14"/>
<rect fill="none" height="50" stroke="#000000" stroke-width="1" width="150" x="302" y="14"/>
<text font-family="Dialog" font-size="12" x="354" y="28">
/Android</text>
<line fill="#000000" stroke="#000000" stroke-width="1" x1="768" x2="768" y1="63" y2="68"/>
<line fill="#000000" stroke="#000000" stroke-width="1" x1="768" x2="768" y1="73" y2="78"/>
<line fill="#000000" stroke="#000000" stroke-width="1" x1="768" x2="768" y1="83" y2="88"/>
<line fill="#000000" stroke="#000000" stroke-width="1" x1="768" x2="768" y1="93" y2="98"/>
<line fill="#000000" stroke="#000000" stroke-width="1" x1="768" x2="768" y1="103" y2="108"/>
<line fill="#000000" stroke="#000000" stroke-width="1" x1="768" x2="768" y1="113" y2="118"/>
<line fill="#000000" stroke="#000000" stroke-width="1" x1="768" x2="768" y1="123" y2="128"/>
<line fill="#000000" stroke="#000000" stroke-width="1" x1="768" x2="768" y1="133" y2="138"/>
<line fill="#000000" stroke="#000000" stroke-width="1" x1="768" x2="768" y1="143" y2="148"/>
<line fill="#000000" stroke="#000000" stroke-width="1" x1="768" x2="768" y1="153" y2="158"/>
<line fill="#000000" stroke="#000000" stroke-width="1" x1="768" x2="768" y1="163" y2="168"/>
<line fill="#000000" stroke="#000000" stroke-width="1" x1="768" x2="768" y1="173" y2="178"/>
<line fill="#000000" stroke="#000000" stroke-width="1" x1="768" x2="768" y1="183" y2="188"/>
<line fill="#000000" stroke="#000000" stroke-width="1" x1="768" x2="768" y1="193" y2="198"/>
<line fill="#000000" stroke="#000000" stroke-width="1" x1="768" x2="768" y1="203" y2="208"/>
<line fill="#000000" stroke="#000000" stroke-width="1" x1="768" x2="768" y1="213" y2="218"/>
<line fill="#000000" stroke="#000000" stroke-width="1" x1="768" x2="768" y1="223" y2="228"/>
<line fill="#000000" stroke="#000000" stroke-width="1" x1="768" x2="768" y1="233" y2="238"/>
<line fill="#000000" stroke="#000000" stroke-width="1" x1="768" x2="768" y1="243" y2="248"/>
<line fill="#000000" stroke="#000000" stroke-width="1" x1="768" x2="768" y1="253" y2="258"/>
<line fill="#000000" stroke="#000000" stroke-width="1" x1="768" x2="768" y1="263" y2="268"/>
<line fill="#000000" stroke="#000000" stroke-width="1" x1="768" x2="768" y1="273" y2="278"/>
<line fill="#000000" stroke="#000000" stroke-width="1" x1="768" x2="768" y1="283" y2="288"/>
<line fill="#000000" stroke="#000000" stroke-width="1" x1="768" x2="768" y1="293" y2="298"/>
<line fill="#000000" stroke="#000000" stroke-width="1" x1="768" x2="768" y1="303" y2="308"/>
<line fill="#000000" stroke="#000000" stroke-width="1" x1="768" x2="768" y1="313" y2="318"/>
<line fill="#000000" stroke="#000000" stroke-width="1" x1="768" x2="768" y1="323" y2="328"/>
<line fill="#000000" stroke="#000000" stroke-width="1" x1="768" x2="768" y1="333" y2="338"/>
<line fill="#000000" stroke="#000000" stroke-width="1" x1="768" x2="768" y1="343" y2="348"/>
<line fill="#000000" stroke="#000000" stroke-width="1" x1="768" x2="768" y1="353" y2="358"/>
<line fill="#000000" stroke="#000000" stroke-width="1" x1="768" x2="768" y1="363" y2="368"/>
<line fill="#000000" stroke="#000000" stroke-width="1" x1="768" x2="768" y1="373" y2="378"/>
<line fill="#000000" stroke="#000000" stroke-width="1" x1="768" x2="768" y1="383" y2="388"/>
<line fill="#000000" stroke="#000000" stroke-width="1" x1="768" x2="768" y1="393" y2="398"/>
<line fill="#000000" stroke="#000000" stroke-width="1" x1="768" x2="768" y1="403" y2="408"/>
<line fill="#000000" stroke="#000000" stroke-width="1" x1="768" x2="768" y1="413" y2="418"/>
<rect fill="#ffffff" height="358" stroke="#ffffff" stroke-width="1" width="20" x="758" y="63"/>
<rect fill="none" height="358" stroke="#000000" stroke-width="1" width="20" x="758" y="63"/>
<rect fill="#ffffff" height="50" stroke="#ffffff" stroke-width="1" width="150" x="693" y="14"/>
<rect fill="none" height="50" stroke="#000000" stroke-width="1" width="150" x="693" y="14"/>
<text font-family="Dialog" font-size="12" x="749" y="28">
/Server</text>
<polyline fill="none" points="387,214 758,214" stroke="#000000" stroke-width="1"/>
<line fill="#000000" stroke="#000000" stroke-width="1" x1="746" x2="758" y1="221" y2="214"/>
<line fill="#000000" stroke="#000000" stroke-width="1" x1="746" x2="758" y1="207" y2="214"/>
<text font-family="Dialog" font-size="12" x="468" y="209">
replicate (Username, Passwort, Fahrzeug)</text>
<polygon fill="#ffffff" points="846,214 1019,214 1029,224 1029,269 846,269 846,214" stroke="#ffffff" stroke-width="1"/>
<polyline fill="none" points="846,214 1019,214 1029,224 1029,269 846,269 846,214" stroke="#000000" stroke-width="1"/>
<polygon fill="#b2b2b2" points="1019,214 1029,224 1019,224 1019,214" stroke="#b2b2b2" stroke-width="1"/>
<polyline fill="none" points="1019,214 1029,224 1019,224 1019,214" stroke="#000000" stroke-width="1"/>
<text font-family="Dialog" font-size="12" x="849" y="230">
Benutzerauthentifizierung wird </text>
<text font-family="Dialog" font-size="12" x="849" y="246">
von CouchDB durchgeführt</text>
<polyline fill="none" points="758,278 387,278" stroke="#000000" stroke-width="1"/>
<line fill="#000000" stroke="#000000" stroke-width="1" x1="399" x2="387" y1="271" y2="278"/>
<line fill="#000000" stroke="#000000" stroke-width="1" x1="399" x2="387" y1="285" y2="278"/>
<text font-family="Dialog" font-size="12" x="527" y="272">
Neue Daten</text>
<ellipse cx="573" cy="276" fill="#000000" rx="0.5" ry="0.5" stroke="#000000" stroke-width="1"/>
<ellipse cx="574" cy="277" fill="#ffffff" rx="-0.5" ry="-0.5" stroke="#ffffff" stroke-width="1"/>
<line fill="#000000" stroke="#000000" stroke-width="1" x1="102" x2="102" y1="63" y2="68"/>
<line fill="#000000" stroke="#000000" stroke-width="1" x1="102" x2="102" y1="73" y2="78"/>
<line fill="#000000" stroke="#000000" stroke-width="1" x1="102" x2="102" y1="83" y2="88"/>
<line fill="#000000" stroke="#000000" stroke-width="1" x1="102" x2="102" y1="93" y2="98"/>
<line fill="#000000" stroke="#000000" stroke-width="1" x1="102" x2="102" y1="103" y2="108"/>
<line fill="#000000" stroke="#000000" stroke-width="1" x1="102" x2="102" y1="113" y2="118"/>
<line fill="#000000" stroke="#000000" stroke-width="1" x1="102" x2="102" y1="123" y2="128"/>
<line fill="#000000" stroke="#000000" stroke-width="1" x1="102" x2="102" y1="133" y2="138"/>
<line fill="#000000" stroke="#000000" stroke-width="1" x1="102" x2="102" y1="143" y2="148"/>
<line fill="#000000" stroke="#000000" stroke-width="1" x1="102" x2="102" y1="153" y2="158"/>
<line fill="#000000" stroke="#000000" stroke-width="1" x1="102" x2="102" y1="163" y2="168"/>
<line fill="#000000" stroke="#000000" stroke-width="1" x1="102" x2="102" y1="173" y2="178"/>
<line fill="#000000" stroke="#000000" stroke-width="1" x1="102" x2="102" y1="183" y2="188"/>
<line fill="#000000" stroke="#000000" stroke-width="1" x1="102" x2="102" y1="193" y2="198"/>
<line fill="#000000" stroke="#000000" stroke-width="1" x1="102" x2="102" y1="203" y2="208"/>
<line fill="#000000" stroke="#000000" stroke-width="1" x1="102" x2="102" y1="213" y2="218"/>
<line fill="#000000" stroke="#000000" stroke-width="1" x1="102" x2="102" y1="223" y2="228"/>
<line fill="#000000" stroke="#000000" stroke-width="1" x1="102" x2="102" y1="233" y2="238"/>
<line fill="#000000" stroke="#000000" stroke-width="1" x1="102" x2="102" y1="243" y2="248"/>
<line fill="#000000" stroke="#000000" stroke-width="1" x1="102" x2="102" y1="253" y2="258"/>
<line fill="#000000" stroke="#000000" stroke-width="1" x1="102" x2="102" y1="263" y2="268"/>
<line fill="#000000" stroke="#000000" stroke-width="1" x1="102" x2="102" y1="273" y2="278"/>
<line fill="#000000" stroke="#000000" stroke-width="1" x1="102" x2="102" y1="283" y2="288"/>
<line fill="#000000" stroke="#000000" stroke-width="1" x1="102" x2="102" y1="293" y2="298"/>
<line fill="#000000" stroke="#000000" stroke-width="1" x1="102" x2="102" y1="303" y2="308"/>
<line fill="#000000" stroke="#000000" stroke-width="1" x1="102" x2="102" y1="313" y2="318"/>
<line fill="#000000" stroke="#000000" stroke-width="1" x1="102" x2="102" y1="323" y2="328"/>
<line fill="#000000" stroke="#000000" stroke-width="1" x1="102" x2="102" y1="333" y2="338"/>
<line fill="#000000" stroke="#000000" stroke-width="1" x1="102" x2="102" y1="343" y2="348"/>
<line fill="#000000" stroke="#000000" stroke-width="1" x1="102" x2="102" y1="353" y2="358"/>
<line fill="#000000" stroke="#000000" stroke-width="1" x1="102" x2="102" y1="363" y2="368"/>
<line fill="#000000" stroke="#000000" stroke-width="1" x1="102" x2="102" y1="373" y2="378"/>
<line fill="#000000" stroke="#000000" stroke-width="1" x1="102" x2="102" y1="383" y2="388"/>
<line fill="#000000" stroke="#000000" stroke-width="1" x1="102" x2="102" y1="393" y2="398"/>
<line fill="#000000" stroke="#000000" stroke-width="1" x1="102" x2="102" y1="403" y2="408"/>
<line fill="#000000" stroke="#000000" stroke-width="1" x1="102" x2="102" y1="413" y2="418"/>
<rect fill="#ffffff" height="358" stroke="#ffffff" stroke-width="1" width="20" x="92" y="63"/>
<rect fill="none" height="358" stroke="#000000" stroke-width="1" width="20" x="92" y="63"/>
<rect fill="#ffffff" height="50" stroke="#ffffff" stroke-width="1" width="176" x="14" y="14"/>
<rect fill="none" height="50" stroke="#000000" stroke-width="1" width="176" x="14" y="14"/>
<text font-family="Dialog" font-size="12" x="76" y="28">
/Benutzer</text>
<polyline fill="none" points="112,126 367,126" stroke="#000000" stroke-width="1"/>
<line fill="#000000" stroke="#000000" stroke-width="1" x1="355" x2="367" y1="133" y2="126"/>
<line fill="#000000" stroke="#000000" stroke-width="1" x1="355" x2="367" y1="119" y2="126"/>
<text font-family="Dialog" font-size="12" x="166" y="121">
login (Username, Passwort)</text>
<polyline fill="none" points="112,182 367,182" stroke="#000000" stroke-width="1"/>
<line fill="#000000" stroke="#000000" stroke-width="1" x1="355" x2="367" y1="189" y2="182"/>
<line fill="#000000" stroke="#000000" stroke-width="1" x1="355" x2="367" y1="175" y2="182"/>
<text font-family="Dialog" font-size="12" x="192" y="175">
Auswahl fahrzeug</text>
<polygon fill="#ffffff" points="454,294 683,294 693,304 693,341 454,341 454,294" stroke="#ffffff" stroke-width="1"/>
<polyline fill="none" points="454,294 683,294 693,304 693,341 454,341 454,294" stroke="#000000" stroke-width="1"/>
<polygon fill="#b2b2b2" points="683,294 693,304 683,304 683,294" stroke="#b2b2b2" stroke-width="1"/>
<polyline fill="none" points="683,294 693,304 683,304 683,294" stroke="#000000" stroke-width="1"/>
<text font-family="Dialog" font-size="12" x="457" y="310">
Die Container-Dokumente beinhalten</text>
<text font-family="Dialog" font-size="12" x="457" y="326">
die Sensoren für das gewählte Fahrzeug</text>
</svg>
